<?xml version="1.0" encoding="utf-8"?>
<!-- Generator: Adobe Illustrator 24.1.1, SVG Export Plug-In . SVG Version: 6.00 Build 0)  -->
<svg version="1.1" id="Layer_2_1_" xmlns="http://www.w3.org/2000/svg" xmlns:xlink="http://www.w3.org/1999/xlink" x="0px" y="0px"
	 viewBox="0 0 134 43.7" style="enable-background:new 0 0 134 43.7;" xml:space="preserve">
<style type="text/css">
	.st0{fill:#3FA147;}
	.st1{fill:#0066CB;}
	.st2{fill:#6CA5D9;}
	.st3{fill:#FECB03;}
	.st4{fill:#EEDFA3;}
	.st5{fill:#6AB7FC;}
	.st6{fill:#FDFCF9;}
	.st7{fill:#969594;}
	.st8{fill:#FDCB06;}
	.st9{fill:#989693;}
	.st10{fill:#CEE6D0;}
	.st11{fill:#F4F9F5;}
	.st12{fill:#C3E1C5;}
	.st13{fill:#D4EAD6;}
	.st14{fill:#AEACA5;}
	.st15{fill:#A5A39F;}
	.st16{fill:#D0E8D2;}
	.st17{fill:#CDE7CF;}
	.st18{fill:#AAA8A1;}
	.st19{fill:#C9AF4C;}
	.st20{fill:#FEE580;}
	.st21{fill:#A3D2A7;}
	.st22{fill:#EFE1A8;}
	.st23{fill:#FCFAF3;}
	.st24{fill:#FBF8ED;}
	.st25{fill:#FAF7E9;}
	.st26{fill:#F3E9BF;}
	.st27{fill:#F1E4B2;}
	.st28{fill:#F2E7BA;}
	.st29{fill:#F6EED0;}
	.st30{fill:#F8F2DB;}
	.st31{fill:#F9F5E3;}
	.st32{fill:#F5ECCA;}
	.st33{fill:#F4EAC6;}
	.st34{fill:#EFE2AC;}
	.st35{fill:#F7F0D5;}
	.st36{fill:#F4ECC9;}
	.st37{fill:#F6F0D5;}
	.st38{fill:#F1E5B6;}
	.st39{fill:#F7F2DB;}
	.st40{fill:none;}
</style>
<g>
	<path class="st0" d="M19.8,1.2c1.4,0.4,2.9,0.6,4.2,1c1.7,0.5,3.4,1.1,5,2c0,0,0.1,0,0.1,0.1c-1,0.4-1.9,0.6-2.7,1
		c-0.7,0.4-1.4,0.4-2.1,0c-2.1-0.7-4.4-1.2-6.6-1.5c-1.2-0.1-2.4-0.1-3.6,0c1.7,0.2,3.5,0.4,5.2,0.7C21,4.8,22.8,5.4,24.4,6
		c0,0.1-0.1,0.1-0.1,0.1c-1.1,0.6-2.4,1.2-3.5,2c-0.1,0.1-0.2,0.1-0.4,0c-1.2-0.2-2.6-0.5-3.9-0.6c-1.6-0.1-3.4-0.1-5,0
		c-0.2,0-0.6,0.1-0.9,0.1c-0.1,0-0.1,0-0.2,0.1c0.5,0,1,0,1.5,0c1.9,0,3.9,0,5.7,0.4c0.5,0.2,1.2,0.4,2,0.6c0,0.1-0.1,0.1-0.2,0.2
		c-0.9,0.6-1.6,1.2-2.5,1.9c-0.2,0.2-0.6,0.4-1,0.4c-2.4,0-4.7,0.6-7,1.5c0,0-0.1,0-0.1,0.1c2.4-0.6,4.6-1.1,7.1-1.1
		c-0.1,0.2-0.4,0.4-0.6,0.5c-0.9,0.7-1.9,1.4-2.7,2.1c-0.5,0.5-1.1,0.7-1.7,0.9c-1.4,0.4-3,1-4.5,1.9c0,0.1,0,0,0.1,0.1
		c1.1-0.5,2.2-1,3.4-1.4c0.6-0.1,1.1-0.4,1.7-0.4c-1.9,1.2-3.5,2.9-4.7,4.6c-0.7,1-1.4,2-1.9,3.1c-0.1,0.2-0.2,0.5-0.2,0.7
		C5,23.8,5,23.7,5,23.6c1.2-2,2.6-3.9,4.2-5.6c0.7-0.9,1.6-1.6,2.6-2.1c0.1-0.1,0.4-0.1,0.5-0.2h0.1c0,0.6,0,1.2-0.1,1.9
		c0,0.1-0.1,0.2-0.2,0.2c-1,0.4-1.7,1-2.6,1.6c-1.4,1.1-2.2,2.6-3,4.1c-0.7,1.6-1.1,3.4-1.2,5.1c0,0,0,0.1-0.1,0
		c-0.5-1.2-0.9-2.6-1.1-3.9c-0.2-1.5-0.4-2.9-0.4-4.4c0-0.2,0.1-0.2,0.2-0.4c0.2,0.1,0.5,0.1,0.8,0c0.1,0,0.2-0.1,0.2-0.1
		c0.2-0.2,0.2-0.4,0-0.6c-0.4-0.2-0.7-0.5-1-0.6c-0.1-0.1-0.2-0.2-0.2-0.4c0.1-1.1,0.4-2.2,0.7-3.4c0-0.1,0.1-0.2,0.2-0.2
		c0.6-0.2,1.2-0.6,1.9-0.9c0.2-0.1,0.5-0.2,0.6-0.4c-0.6-0.1-1.1-0.4-1.6-0.6c-0.1-0.1-0.2-0.2-0.1-0.4c0.4-0.9,0.7-1.6,1.2-2.4
		c0.1-0.2,0.5-0.4,0.7-0.6c0.5-0.3,1-0.5,1.4-0.8c0.1-0.1,0.2-0.2,0.1-0.4C8.7,7.4,8.7,6.9,9.2,6.5c0.5-0.5,1-1,1.5-1.5
		c0.4-0.4,0.7-0.5,1.2-0.6c0.4-0.1,0.9-0.2,1.2-0.2c-0.1-0.1-0.2-0.4-0.4-0.5c-0.1-0.1-0.1-0.2,0-0.4c1.4-1,2.9-1.7,4.5-2.2
		c2.6-0.9,5.2-1.2,8-0.9c2.6,0.4,5,1.4,6.9,3.5c0,0,0,0.1,0.1,0.1c-0.7,0.1-1.2,0.4-2,0.4C30,4.2,29.9,4,29.6,4
		c-1.6-0.7-3.4-1.5-5.2-2c-1.5-0.4-2.9-0.6-4.4-0.7c-0.1,0-0.4,0-0.5,0s-0.2,0-0.4-0.1l0,0c0.1,0,0.1,0,0.2,0
		C19.5,1.2,19.7,1.2,19.8,1.2z"/>
	<path class="st1" d="M13.3,19.4c-0.4-0.1-0.9-0.4-1.4-0.4c0.7-0.5,1.4-0.7,2.1-1c2.7-0.9,5.2-0.5,7.9,0.7c1.1,0.5,2.1,1.2,3,2.1
		C25,21,25,21.1,25,21.3c-1.9,4.1-1.1,8,1.6,11.5c1.2,1.5,2.6,2.7,4.5,3.5c2.1,0.9,4.2,1.1,6.6,0.7c1.5-0.2,2.9-0.7,4.2-1.2
		c0.1,0,0.1-0.1,0.2-0.1c0,0,0,0,0.1,0c-0.1,0.2-0.4,0.5-0.6,0.7c-3.5,3.9-8,6.4-13.1,7.1c-3,0.5-6,0.2-8.9-0.5
		c-0.1,0-0.1,0-0.1-0.1c-0.9-0.6-1-2-0.4-2.7c0.2-0.2,0.5-0.2,0.7-0.4c0.6-0.2,1.2-0.2,1.9-0.2c1.2-0.1,2.5-0.4,3.6-1
		c0.9-0.4,1-1.4,0.4-2.1c-0.1-0.1-0.2-0.2-0.5-0.4c-0.4-0.2-0.5-0.6-0.2-1c0.1-0.2,0.2-0.4,0.4-0.6c0.2-0.5,0.1-0.7-0.4-0.7h0
		c-0.1,0-0.4,0-0.4-0.1c-0.1-0.1,0.1-0.2,0.2-0.4C25,33,25,33,25.2,32.9c0.4-0.4,0.4-0.6,0-1c-0.2-0.2-0.5-0.4-0.7-0.5
		c-0.6-0.4-0.7-1-0.2-1.5c0.5-0.6,0.5-1-0.2-1.4c-1-0.6-1.9-1.2-2.9-1.7s-1.5-1.4-1.6-2.5s-0.5-2.1-1.2-3c-0.5-0.6-1.2-1-2-1.4
		c-0.7-0.2-1.5-0.5-2.4-0.5C13.6,19.4,13.4,19.4,13.3,19.4z"/>
	<path class="st2" d="M6.3,28.2C6.2,26,6.8,23.9,8.2,22c0.9-1,1.9-1.9,2.9-2.7c0.1-0.1,0.4-0.1,0.5,0c0.9,0.6,1.4,1.4,1.7,2.4
		c0.2,0.5,0.2,1,0.4,1.6c0.1,0.9,0.6,1.5,1.4,2c1,0.6,2,1.2,3,1.9c0.1,0.1,0.4,0.2,0.5,0.4c0.2,0.4,0.2,0.7,0,1.1l-0.1,0.1
		c-0.5,0.5-0.4,1,0.2,1.4c0.2,0.1,0.5,0.2,0.7,0.5c0.4,0.4,0.4,0.7-0.1,1.1c-0.2,0.1-0.4,0.2-0.6,0.5c0.2,0,0.5,0,0.7,0
		c0.4,0.1,0.5,0.4,0.4,0.7c-0.1,0.1-0.2,0.4-0.2,0.5c-0.4,0.5-0.2,1,0.2,1.4c0.1,0.1,0.4,0.2,0.5,0.4c0.6,0.6,0.4,1.7-0.4,2.1
		c-1,0.5-2.1,0.7-3.2,1c-0.9,0.1-1.6,0-2.5,0.4c-0.5,0.1-0.9,0.4-1.1,0.9c-0.1,0.1-0.1,0-0.2,0c-0.5-0.4-0.9-0.7-1.4-1.1
		c-1.9-1.7-3.4-3.9-4.4-6.2C7.1,32.3,7,32.2,7,32c0.1,0,0.1,0,0.1,0c0.2,0.5,0.9,0.6,1.4,0.7c0.9,0.1,1.6-0.1,2.2-0.7
		c0.1-0.1,0.4-0.2,0.5-0.5c-0.4,0.1-0.6,0.2-1,0.2c-1.2,0.2-2.1-0.2-2.9-1.2c-0.4-0.5-0.6-1.1-0.7-1.7C6.6,28.5,6.6,28.2,6.3,28.2z"
		/>
	<path class="st0" d="M28.1,15.1c1-2.4,1.6-4.7,1.9-7.4c0.1-1,0.1-1.9,0.1-2.9c0-0.2,0.1-0.4,0.4-0.5c0.6-0.1,1.2-0.2,1.9-0.4
		c0.2,0,0.2,0,0.4,0.1c0.9,1.1,1.2,2.5,1.5,4c0.4,1.7,0.4,3.5,0,5.2c-0.6,2.6-2.2,4.5-4.5,6c-1,0.6-2.1,1.1-3.2,1.6
		c-0.2,0.1-0.2,0.1-0.4-0.1c-1.5-2.1-3.5-3.5-6.1-4.1c-0.1,0-0.2-0.1-0.2-0.2c0.6-2.2,1-4.6,0.9-7.1c0-0.6,0.2-1,0.7-1.2
		c1-0.5,2-1,3-1.5c0.2-0.1,0.2-0.1,0.4,0.2c0.1,3-0.5,5.9-1.1,8.7c-0.1,0.2-0.1,0.5-0.1,0.7v0.1l0,0c1.1-2.9,1.9-5.7,1.9-8.7
		c0-0.4,0-0.7,0-1.2c0-0.1,0-0.2,0.2-0.4c1.1-0.5,2.4-0.9,3.5-1.2c0.2-0.1,0.4,0,0.4,0.2c0.1,3-0.5,6-1.1,8.9
		c-0.1,0.4-0.2,0.7-0.2,1C28.1,15.1,28.1,15.1,28.1,15.1C28.1,15.3,28,15.3,28.1,15.1C28.1,15.3,28.1,15.3,28.1,15.1z"/>
	<path class="st3" d="M24.9,25.1c0-1,0.1-1.9,0.2-2.7c0-0.2,0.1-0.2,0.2-0.2c1.5-0.1,2.9-0.5,4.1-1.2c2.6-1.5,4.2-3.7,5.1-6.5
		c0.2-0.9,0.5-1.7,0.6-2.6c0.1,0,0.2,0.1,0.4,0.1c1.9,1.4,3.1,3.2,3.5,5.5c0.2,1.6,0.1,3.1-0.5,4.6c-1.2,3-3.5,4.7-6.7,5.4
		c-2.5,0.5-4.7-0.2-6.9-1.7C25.2,25.4,25,25.2,24.9,25.1z"/>
	<path class="st4" d="M30.9,34.8c-0.6-0.2-1.2-0.6-1.9-1.1c-0.1-0.1-0.1-0.2-0.1-0.4s-0.1-0.4-0.1-0.6c0-0.2-0.1-0.4-0.4-0.4
		c-0.4,0-0.7-0.1-1.1-0.2c-0.6-0.6-1.1-1.5-1.5-2.2c-0.6-1.4-0.9-3-0.9-4.5c0.1,0,0.2,0.1,0.4,0.2c1.2,0.9,2.5,1.5,4.1,1.7
		c1.9,0.2,3.6,0,5.4-0.9c0.6-0.4,1.2-0.7,1.7-1.2c0,0,0.1-0.1,0.2-0.1c0.9,1.4,2,2.6,2.9,3.9c0.1,0.1,0.1,0.1,0.1,0.2
		c-0.2,0.4-0.5,0.5-0.9,0.7c-0.4,0.4-0.4,0.4-0.2,0.9c0.1,0.4,0.2,0.7,0.4,1c0.1,0.2,0,0.5-0.1,0.6c-0.6,0.7-1.4,1-2.2,1.1
		c-0.4,0-0.6-0.1-0.7-0.4c-0.2-0.4-0.4-0.6-0.6-1c-0.1-0.2-0.4-0.4-0.6-0.2c-0.5,0.1-1,0.2-1.6,0.4c-0.2,0-0.4,0.2-0.5,0.5
		c0,0.4-0.1,0.9-0.1,1.2c0,0.2-0.1,0.4-0.4,0.5C31.8,34.8,31.4,35,30.9,34.8z"/>
	<path class="st3" d="M46.9,15.5c1.4,4.5,1,9-1,13.2c-0.9,1.7-1.9,3.5-3.4,4.7c-2.1,1.9-4.6,2.9-7.5,2.6c-1.2-0.1-2.5-0.5-3.7-1.1
		c0.1-0.2,0.4-0.1,0.5-0.2c0.5-0.1,0.6-0.4,0.7-0.9c0-0.4,0.1-0.7,0.1-1.1c0-0.2,0.1-0.4,0.4-0.4c0.5-0.1,1.1-0.2,1.6-0.4
		c0.2,0,0.4,0,0.5,0.2c0.2,0.4,0.5,0.6,0.6,1c0.2,0.2,0.5,0.4,0.7,0.4c0.9-0.1,1.6-0.5,2.2-1.2c0.1-0.1,0.1-0.4,0.1-0.5
		c-0.1-0.4-0.2-0.9-0.4-1.2c-0.1-0.2,0-0.5,0.2-0.6c0.4-0.2,0.9-0.6,1.2-1c0.1-0.1,0.4-0.1,0.5,0c0.4,0.2,0.7,0.4,1.1,0.6
		c0.4,0.2,0.6,0.2,1,0c0.7-0.4,1.1-1,1.4-1.7c0.1-0.4,0.1-0.7-0.2-1c-0.2-0.2-0.5-0.5-0.7-0.7c-0.1-0.1-0.2-0.4-0.1-0.5
		c0.2-0.5,0.5-0.9,0.6-1.4c0.1-0.4,0.2-0.5,0.6-0.4c0.4,0,0.6,0,1,0.1s0.6,0,0.9-0.4c0.5-0.7,0.7-1.6,0.5-2.6c0-0.1-0.1-0.2-0.2-0.4
		c-0.5-0.2-0.9-0.4-1.4-0.5c-0.4-0.1-0.5-0.2-0.4-0.6c0-0.4,0-0.9,0-1.2s0-0.5,0.4-0.6s0.7-0.2,1.1-0.4c0.4-0.1,0.6-0.4,0.6-0.9
		C46.7,16,46.7,15.8,46.9,15.5C46.7,15.5,46.9,15.5,46.9,15.5z"/>
	<path class="st5" d="M13.3,19.4c1.7,0,3.2,0.5,4.5,1.6c0.9,0.7,1.2,1.7,1.4,2.9c0.1,0.5,0.1,1.1,0.5,1.6c0.4,0.6,0.9,0.9,1.4,1.2
		c0.9,0.5,1.7,1,2.6,1.6c0.1,0.1,0.4,0.2,0.5,0.4c0.2,0.4,0.2,0.7-0.1,1.1c-0.6,0.5-0.5,1.1,0.2,1.5c0.2,0.1,0.5,0.2,0.7,0.5
		c0.4,0.4,0.2,0.7-0.1,1c-0.2,0.1-0.4,0.2-0.6,0.5c0.4,0,0.5,0,0.7,0.1c0.4,0.1,0.5,0.4,0.4,0.6c-0.1,0.1-0.2,0.4-0.2,0.5
		c-0.2,0.5-0.4,1,0.2,1.4c0.5,0.2,0.9,0.7,0.7,1.4c0,0.5-0.2,0.9-0.7,1.1c-1,0.5-2.1,0.7-3.2,1c-0.7,0.1-1.6,0-2.4,0.2
		c-1.2,0.4-1.6,1.6-0.9,2.6c0.1,0.1,0.1,0.2,0.2,0.4c-1-0.2-2.1-0.6-3.1-1.1c-0.2-0.1-0.2-0.2-0.4-0.5c-0.2-0.9,0.2-1.6,1.1-1.9
		c0.6-0.2,1.1-0.1,1.7-0.2c1.2-0.1,2.5-0.4,3.7-1c1-0.5,1.2-1.6,0.4-2.4c-0.1-0.1-0.2-0.2-0.4-0.2C21.8,35,21.8,34.6,22,34
		c0.1-0.1,0.2-0.2,0.2-0.5c0.1-0.4,0-0.6-0.4-0.7c-0.2,0-0.4,0-0.6-0.1c0.1-0.2,0.4-0.2,0.5-0.4c0.5-0.4,0.5-0.9,0-1.2
		c-0.2-0.1-0.5-0.2-0.7-0.4c-0.5-0.2-0.6-0.9-0.2-1.2c0.7-0.6,0.4-1.2-0.2-1.6c-1-0.6-1.9-1.1-2.9-1.7c-0.9-0.5-1.4-1.2-1.5-2.4
		s-0.5-2.1-1.2-3c-0.4-0.4-0.9-0.7-1.4-1C13.7,19.5,13.6,19.4,13.3,19.4z"/>
	<path class="st3" d="M34,5.3c-0.7-1.2-1.7-2.5-2.9-3.5c-0.6-0.6-1.2-1.1-2-1.6c0,0,0-0.1,0.1-0.1c3.2,0.5,6.2,1.7,8.9,3.6
		c1.6,1.1,3.1,2.5,4.5,4.1c0.1,0.1,0.1,0.1,0.1,0.2c-0.1,0.1-0.2,0-0.2,0c-0.4-0.2-0.6-0.1-1,0c-0.2,0.2-0.6,0.4-0.9,0.5
		c-0.2,0.1-0.4,0.1-0.6,0c-0.4-0.4-0.9-0.7-1.4-1c-0.2-0.1-0.2-0.4-0.1-0.5c0.1-0.4,0.2-0.6,0.4-1C39,5.7,39,5.3,38.6,5
		c-0.5-0.5-1.2-0.9-2-1c-0.4-0.1-0.7,0-1,0.4c0,0.1-0.1,0.4-0.2,0.6C35,5.5,34.6,5.7,34,5.3C34.1,5.3,34.1,5.3,34,5.3z"/>
	<path class="st0" d="M20.2,9.3c0.2,2.5-0.1,4.9-0.6,7.2c0,0.1,0,0.2-0.2,0.2c-1-0.1-1.9-0.2-2.9-0.1c0.4-1.6,0.5-3.2,0.6-4.9
		c0-0.1,0-0.2,0.1-0.2c1-0.6,1.9-1.5,2.9-2.1C20,9.3,20.2,9.3,20.2,9.3z"/>
	<path class="st6" d="M35.4,11.4c0-0.5,0.1-1,0-1.6c0-0.1,0.1-0.1,0.1-0.1c0.1,0,0.1,0.1,0.2,0.1c1.2,1.5,2.4,3.1,3.6,4.6
		c1,1.2,2,2.6,3,3.9c1.1,1.4,2.1,2.7,3.2,4.2c0.1,0.2,0.2,0.5,0.6,0.6c0,0.2-0.1,0.4-0.4,0.5c-0.2,0.1-0.5,0-0.7-0.2
		c-1.7-2.2-3.5-4.6-5.2-6.9c-0.4-0.4-0.6-0.9-1-1.2c-0.1-0.1-0.2-0.4-0.2-0.5c-0.7-1.2-1.7-2.2-3-3.1C35.6,11.7,35.5,11.5,35.4,11.4
		z"/>
	<path class="st6" d="M44.6,18.6c-0.2,0-0.4-0.2-0.5-0.4c-1.4-1.7-2.7-3.6-4.1-5.4c-1.2-1.6-2.5-3.2-3.7-4.9
		c-0.5-0.7-1.1-1.4-1.6-2.1c-0.1-0.1-0.2-0.2-0.2-0.4c0,0,0.1-0.1,0.1,0c0.2,0.1,0.5,0,0.6-0.1c0.5,0.4,0.9,0.9,1.2,1.4
		c2.7,3.5,5.4,7,8.1,10.5c0.1,0.1,0.2,0.2,0.2,0.4c0,0.2,0,0.5,0,0.7C44.7,18.4,44.7,18.5,44.6,18.6z"/>
	<path class="st0" d="M12.8,17.4c0-0.7,0.1-1.5,0.1-2.2c0-0.1,0.1-0.2,0.2-0.4c1.1-0.9,2.1-1.9,3.2-2.7c0,0,0,0,0,0.1
		c0,1.4-0.1,2.7-0.4,4.2c0,0.2-0.1,0.2-0.4,0.4C14.7,16.9,13.7,17,12.8,17.4z"/>
	<path class="st7" d="M44.6,18.6c0-0.2,0-0.4,0-0.6c0-0.1,0-0.4,0.1-0.5s0.4-0.1,0.5-0.2c0.2,0,0.4-0.1,0.5-0.2
		c0.1,0,0.4-0.1,0.5-0.2c0.2-0.1,0.4-0.2,0.4-0.5c0-0.4,0-0.7,0-1.1c0-0.4-0.1-0.7-0.4-1c-0.1-0.2-0.4-0.4-0.6-0.4
		c-0.2,0-0.6,0-0.9,0s-0.4,0-0.6,0c-0.2,0-0.4-0.2-0.4-0.4s-0.1-0.2-0.2-0.5c-0.1-0.4-0.4-0.7-0.6-1.1c-0.1-0.1-0.1-0.2,0-0.5
		c0.1-0.2,0.4-0.4,0.5-0.5s0.1-0.2,0.2-0.4c0.1-0.1,0.4-0.4,0.5-0.5c0.1-0.2,0-0.4-0.1-0.6c0-0.1-0.1-0.2-0.1-0.4c0,0,0-0.1,0.1-0.1
		c0.1,0.2,0.4,0.4,0.4,0.7c0.1,0.2,0.1,0.5-0.1,0.7c-0.2,0.2-0.5,0.6-0.9,0.9c-0.1,0.1-0.1,0.2-0.1,0.5c0.2,0.5,0.5,0.9,0.6,1.4
		c0.1,0.2,0.2,0.2,0.4,0.2c0.5-0.1,0.9,0,1.4-0.1c0.2,0,0.5,0.1,0.6,0.2c0,0.1,0.1,0.2,0.1,0.2c0.2,0.4,0.2,0.7,0.4,1.1
		c0,0.1,0,0.2,0,0.2c0,0.4,0,0.7,0,1.1c0,0.2-0.1,0.4-0.2,0.4c-0.5,0.2-1,0.4-1.5,0.6c-0.1,0.1-0.2,0.1-0.2,0.4
		c0.1,0.5,0.1,1.1,0,1.6c0,0.2,0,0.2,0.2,0.4c0.5,0.1,1,0.4,1.5,0.6c0.1,0,0.2,0.1,0.2,0.4c0.2,1,0,1.9-0.6,2.7
		c-0.2,0.4-0.5,0.4-0.9,0.4s-0.7-0.1-1.1-0.1c-0.1,0-0.2,0-0.4,0.2c-0.2,0.5-0.5,1.1-0.7,1.6c-0.1,0.1,0,0.2,0.1,0.4
		c0.2,0.2,0.6,0.6,0.9,0.9c0.2,0.2,0.4,0.6,0.2,1c-0.2,0.9-0.7,1.5-1.5,1.9c-0.4,0.1-0.6,0.2-0.9,0c-0.4-0.2-0.7-0.4-1.1-0.6
		c-0.1-0.1-0.2-0.1-0.4,0c-0.4,0.4-0.9,0.7-1.2,1C39,29.9,39,30,39.1,30.3c0.1,0.5,0.2,0.9,0.4,1.4c0,0.1,0,0.2-0.1,0.4
		c-0.6,0.9-1.6,1.2-2.6,1.4c-0.2,0-0.4-0.1-0.5-0.2c-0.2-0.4-0.5-0.7-0.7-1.1c-0.1-0.1-0.2-0.2-0.5-0.1c-0.5,0.1-1.1,0.2-1.6,0.4
		c-0.2,0-0.2,0.1-0.2,0.4c0,0.5-0.1,0.9-0.1,1.4c0,0.2-0.1,0.5-0.5,0.6C32.5,35,32.2,35,32,35.1c-0.1,0-0.2-0.1-0.4-0.1
		c0.4-0.1,0.7-0.1,1.1-0.2c0.1-0.1,0.2-0.1,0.2-0.4c0-0.5,0.1-1,0.2-1.5c0-0.2,0.1-0.4,0.4-0.4c0.6-0.1,1.2-0.2,1.9-0.4
		c0.2-0.1,0.4,0.1,0.5,0.2c0.2,0.4,0.5,0.6,0.6,1s0.4,0.4,0.7,0.4c0.9-0.1,1.5-0.4,2.1-1.1c0.1-0.1,0.2-0.4,0.1-0.6
		c-0.1-0.4-0.2-0.9-0.4-1.2c-0.1-0.4,0-0.5,0.2-0.7c0.4-0.2,0.6-0.5,1-0.7c0.1-0.2,0.2-0.4,0.5-0.5c0.4-0.1,0.6,0.2,0.9,0.4
		c0.2,0.1,0.5,0.2,0.7,0.4c0.2,0.1,0.5,0.1,0.7,0s0.4-0.2,0.6-0.4c0.1-0.1,0.2-0.2,0.4-0.5c0.1-0.1,0.1-0.2,0.2-0.4
		c0.1-0.1,0.2-0.4,0.2-0.5c0.1-0.4,0-0.6-0.2-0.9c-0.2-0.2-0.5-0.5-0.7-0.7c-0.1-0.1-0.2-0.4-0.1-0.5c0.1-0.1,0.1-0.2,0.2-0.4
		c0.1-0.2,0.2-0.4,0.4-0.6c0.1-0.2,0.2-0.4,0.2-0.6c0-0.1,0.1-0.2,0.2-0.4h0.1c0.1,0,0.2,0,0.4,0c0.1,0,0.2,0,0.4,0s0.6,0,0.9,0.1
		c0.1,0,0.2,0,0.4,0c0.2-0.1,0.2-0.2,0.4-0.5c0.5-0.7,0.5-1.5,0.4-2.4c0-0.1-0.1-0.2-0.2-0.2c-0.5-0.1-0.9-0.4-1.4-0.5
		c-0.2-0.1-0.4-0.2-0.4-0.6C44.6,19.3,44.6,19,44.6,18.6z"/>
	<path class="st3" d="M46.4,14.1c-0.1-0.1-0.1-0.1-0.2-0.2c-0.1-0.2-0.4-0.4-0.6-0.2c-0.5,0.1-0.9,0-1.4,0.1c-0.1,0-0.2,0-0.4-0.2
		c-0.2-0.5-0.5-1-0.7-1.5c-0.1-0.1-0.1-0.2,0-0.4c0.2-0.2,0.5-0.6,0.7-0.9c0.2-0.2,0.4-0.5,0.4-0.9c0.1,0,0.1,0.1,0.1,0.1
		c0.7,1.2,1.4,2.6,2,4C46.4,14,46.4,14,46.4,14.1z"/>
	<path class="st1" d="M6.3,28.2c0,0,0.1-0.1,0.1-0.2c0.1,0.5,0.2,0.9,0.4,1.4c0.2,0.5,0.5,0.9,0.7,1.2c0.7,0.7,1.6,1,2.6,0.7
		c0.4-0.1,0.7-0.2,1.1-0.2c-0.2,0.4-0.5,0.6-0.7,0.9c-0.9,0.7-2.2,0.9-3.2,0.2c-0.2-0.1-0.2-0.4-0.4-0.5C6.6,30.6,6.4,29.5,6.3,28.2
		z"/>
	<path class="st7" d="M35.4,11.4c0.9,0.4,1.5,1.1,2.1,1.7c0.6,0.6,1,1.4,1.4,2.2c0.2,0.4,0.4,0.9,0.5,1.2c0,0.1,0.1,0.4,0.1,0.5
		c0.1,0.4,0.1,0.7,0.1,1s0,0.5,0,0.7s0,0.5,0,0.7c-0.1,0.4-0.1,0.7-0.1,1c0,0.1-0.1,0.2-0.1,0.4c-0.1,0.2-0.1,0.5-0.2,0.7
		c0,0.1-0.1,0.2-0.1,0.4C39,22,39,22.1,38.9,22.3c-0.1,0.1-0.1,0.4-0.2,0.5c-0.1,0.2-0.2,0.4-0.4,0.6c0,0.1-0.1,0.1-0.1,0.2
		c-0.1,0.1-0.2,0.4-0.4,0.5c-0.1,0.1-0.2,0.2-0.4,0.4c-0.1,0.1-0.2,0.4-0.5,0.4c-1,0.9-2.1,1.5-3.4,1.9c-3,0.9-5.9,0.2-8.2-1.6
		c0,0-0.1,0-0.1-0.1s0-0.1,0-0.2c1.1,1,2.5,1.7,4,2c2.6,0.5,5,0,7.1-1.6c2.4-1.9,3.5-4.2,3.2-7.2c-0.2-2.9-1.5-5-3.9-6.6
		C35.4,11.5,35.4,11.5,35.4,11.4z"/>
	<path class="st7" d="M35.3,5.4c-0.2,0.2-0.5,0.1-0.9,0.1C34.3,5.4,34,5.4,34,5.3c0.9,0.2,0.9,0.2,1.5-0.6c0,0,0-0.1,0.1-0.1
		c0.5-0.7,0.6-0.9,1.5-0.7c0.7,0.1,1.2,0.5,1.7,1C39.1,5,39.1,5.3,39,5.7c-0.1,0.4-0.2,0.7-0.4,1.1c-0.1,0.1,0,0.2,0.1,0.4
		c0.5,0.4,1,0.6,1.4,1.1c0.1,0.1,0.2,0.1,0.4,0s0.6-0.2,0.7-0.5c0.6-0.2,1.1-0.2,1.6,0.1C43,8,43.2,8.3,43.4,8.5l0,0l0,0
		c-0.1,0-0.2-0.1-0.2-0.1C43,8.2,42.7,8,42.5,7.9c-0.1,0-0.2-0.1-0.4,0S41.9,8,41.6,8.2c-0.1,0.1-0.2,0.1-0.5,0.2
		c-0.2,0.1-0.4,0.2-0.6,0.4c-0.4,0.1-0.5-0.1-0.7-0.4c0,0,0,0,0-0.1c-0.1-0.1-0.1-0.1-0.2-0.2c-0.4-0.2-0.7-0.5-1-0.9
		c0-0.1,0-0.2,0-0.4c0,0,0,0,0-0.1c0.1-0.2,0.1-0.5,0.2-0.7c0-0.1,0.1-0.2,0.1-0.2c0.1-0.4,0-0.6-0.1-0.9c-0.4-0.4-1-0.7-1.5-0.9
		c-0.2,0-0.5-0.1-0.7,0c-0.2,0-0.2,0.2-0.4,0.4c-0.1,0.1-0.2,0.4-0.4,0.5C35.5,5.2,35.5,5.3,35.3,5.4z"/>
	<path class="st8" d="M28.8,33.6c-0.5-0.4-0.9-0.7-1.2-1.1c0.1-0.1,0.2-0.1,0.4-0.1c0.1,0,0.2,0,0.5,0.1
		C28.8,32.5,29,33.1,28.8,33.6z"/>
	<path class="st9" d="M28.8,33.6c0-0.2-0.1-0.6-0.1-0.9c0-0.1-0.1-0.1-0.1-0.1c-0.4,0-0.7-0.1-1-0.1c-0.1-0.1-0.1-0.1-0.2-0.2
		c0.5,0.1,0.9,0.1,1.4,0.2c0.1,0,0.2,0.1,0.2,0.2c0,0.2,0,0.5,0.1,0.7c0,0.1,0.1,0.2-0.1,0.2C28.9,33.6,28.8,33.6,28.8,33.6z"/>
	<path class="st10" d="M11.7,7.9c-0.6,0.1-1.1,0-1.7,0c0.1-0.1,0.2-0.1,0.5-0.1C10.9,7.9,11.3,7.8,11.7,7.9z"/>
	<path class="st11" d="M19.8,1.2c-0.1,0-0.2,0-0.4-0.1c0,0,0-0.1,0,0c0.1,0,0.4,0,0.5,0.1H19.8z"/>
	<path class="st12" d="M28.1,15.1c0,0.1,0,0.2-0.1,0.4c0-0.2,0-0.4,0.1-0.5C28.1,15.1,28.1,15.1,28.1,15.1z"/>
	<path class="st13" d="M23.5,16.5c0,0.1,0,0.1-0.1,0.2c0-0.1,0-0.2,0.1-0.4C23.5,16.5,23.5,16.5,23.5,16.5z"/>
	<path class="st14" d="M43.7,9.2L43.7,9.2c-0.2,0-0.2-0.1-0.2-0.1s0,0,0-0.1C43.6,8.9,43.7,9,43.7,9.2z"/>
	<path class="st15" d="M43.6,8.9L43.6,8.9c-0.1,0.1-0.2,0-0.2-0.1c0,0,0,0,0-0.1C43.5,8.7,43.5,8.8,43.6,8.9z"/>
	<path class="st16" d="M6.4,17.1c-0.1,0.1-0.1,0.1-0.2,0.1C6.2,17.1,6.3,17.1,6.4,17.1L6.4,17.1z"/>
	<path class="st17" d="M5.2,28.7C5.2,28.7,5.3,28.7,5.2,28.7c0.1,0,0.1,0.1,0.1,0.2C5.2,29,5.2,28.9,5.2,28.7z"/>
	<path class="st18" d="M28.9,33.6c0.1,0,0.1-0.1,0.1-0.2c0.1,0.1,0,0.2,0,0.4C29,33.7,28.9,33.7,28.9,33.6z"/>
	<path class="st19" d="M46.9,15.5c-0.1-0.1,0-0.1,0-0.2C46.7,15.4,46.9,15.4,46.9,15.5L46.9,15.5z"/>
	<path class="st20" d="M29.3,0.1L29.3,0.1c-0.1,0-0.2,0-0.2,0C29.1-0.1,29.3,0.1,29.3,0.1z"/>
	<path class="st21" d="M19.4,1.1C19.4,1.1,19.4,1.2,19.4,1.1c-0.1,0.1-0.2,0-0.4,0C19.2,1.1,19.3,1.1,19.4,1.1z"/>
	<path class="st22" d="M36.6,25.1c0.1-0.1,0.2-0.2,0.5-0.4c0,0,0.1,0,0.1,0.1c0.4,0.6,0.9,1.2,1.4,1.7c0.2,0.4,0.4,0.6,0.6,1
		c0.2,0.4,0.6,0.6,0.9,1c0,0.1,0.1,0.1,0,0.2s-0.4,0.2-0.5,0.5c-0.6-0.7-1.1-1.4-1.7-2.1c-0.4-0.5-0.7-1-1.2-1.5
		C36.7,25.5,36.6,25.4,36.6,25.1z"/>
	<path class="st23" d="M39.4,17.1c-0.1-0.6-0.4-1.1-0.5-1.7c0.4,0.1,0.5,0.5,0.6,0.7c1.2,1.6,2.6,3.4,3.9,5c0.6,0.7,1.2,1.6,1.9,2.4
		c0.1,0.2,0.4,0.1,0.5,0.1c-0.5,0.1-0.9,0-1.4-0.1c-0.5-0.5-0.7-1-1.2-1.5c-1.2-1.5-2.4-3.1-3.6-4.7C39.5,17.4,39.5,17.3,39.4,17.1z
		"/>
	<path class="st23" d="M35.3,5.4c0.1-0.1,0.1-0.4,0.4-0.5C35.9,4.8,35.9,5,36,5.2c0.9,1.1,1.6,2.1,2.5,3.2c2,2.5,3.9,5.1,5.9,7.6
		c0.2,0.4,0.5,0.6,0.7,1c0.1,0.1,0.2,0.2,0.1,0.4c-0.1,0.1-0.4,0.1-0.5,0.2c-0.4-0.2-0.5-0.6-0.9-1c-1.2-1.5-2.5-3.1-3.6-4.7
		c-1-1.2-2-2.6-3-3.9c-0.6-0.7-1.1-1.5-1.7-2.2C35.4,5.7,35.3,5.5,35.3,5.4z"/>
	<path class="st24" d="M45.1,17.3c0-0.1,0-0.2-0.1-0.2c-1.5-1.9-3-3.9-4.5-5.7c-1.3-1.7-2.5-3.4-3.8-5c-0.4-0.4-0.6-0.9-1-1.2
		c0-0.1-0.1-0.2-0.1-0.2c0.1-0.2,0.1-0.4,0.4-0.5c0.2,0,0.2,0.1,0.4,0.2c1.4,1.9,2.9,3.6,4.2,5.5c1.6,2.1,3.2,4.2,5,6.4
		c0.1,0.1,0.4,0.2,0.2,0.6C45.5,17.1,45.4,17.3,45.1,17.3z"/>
	<path class="st25" d="M45.7,17.1c-0.1-0.5-0.5-0.7-0.7-1.1c-0.9-1.1-1.7-2.2-2.6-3.4c-1-1.4-2.1-2.6-3.1-4c-0.7-1-1.5-2-2.2-3
		c-0.4-0.4-0.6-0.9-1-1.2c0-0.1,0-0.4,0.3-0.4c0.2,0.1,0.4,0.4,0.6,0.6c0.5,0.6,1,1.2,1.5,1.9c0.1,0.1,0.1,0.1,0.1,0.4l0,0
		c-0.1,0.1,0,0.2,0,0.4c0.4,0.2,0.7,0.5,1.1,0.9c0.1,0.1,0.1,0.1,0.2,0.2l0,0c0.4,0.6,0.9,1.1,1.2,1.7c0.7,1,1.6,2,2.4,3.1
		c0.1,0.1,0.1,0.4,0.2,0.5c0,0.1,0.1,0.2,0.2,0.4c0.1,0,0.2,0.1,0.4,0.2c0.6,0.7,1.2,1.6,1.9,2.4c0.1,0.1,0.2,0.2,0.1,0.4
		C46,17,45.9,17,45.7,17.1z"/>
	<path class="st26" d="M38.4,23c0.1-0.1,0.1-0.4,0.2-0.5c0.1,0,0.2,0.1,0.2,0.2c1.4,1.7,2.7,3.5,4,5.2c0.1,0.2,0.4,0.5,0.5,0.6
		c-0.1,0.2-0.2,0.4-0.4,0.5s-0.2,0-0.4-0.1c-0.6-0.7-1.2-1.6-1.9-2.4c-0.7-1-1.5-2-2.4-3C38.4,23.4,38.2,23.3,38.4,23z"/>
	<path class="st27" d="M37.5,24.4c0.1-0.1,0.2-0.4,0.4-0.5c0.2,0,0.2,0.1,0.4,0.2c1.4,1.7,2.6,3.4,4,5.1c0.1,0.1,0.1,0.2,0.4,0.2
		c0,0,0,0,0.1,0.1c-0.2,0.1-0.5,0.2-0.7,0c-0.2-0.1-0.5-0.2-0.7-0.5c-0.6-0.7-1.1-1.4-1.6-2.1c-0.6-0.7-1.1-1.5-1.7-2.2
		C37.5,24.6,37.4,24.5,37.5,24.4z"/>
	<path class="st24" d="M39.4,17.1c0.2,0.1,0.4,0.4,0.5,0.6c1.1,1.5,2.2,3,3.4,4.5c0.4,0.5,0.7,0.9,1.1,1.4l0.1,0.1
		c-0.1,0-0.2,0-0.4,0c-0.1,0-0.2,0-0.4,0l0,0c-0.4-0.4-0.6-0.7-1-1.2c-1-1.2-2-2.6-3-3.9c-0.1-0.1-0.2-0.2-0.2-0.5
		C39.5,17.8,39.4,17.5,39.4,17.1z"/>
	<path class="st28" d="M38.4,23c0,0.1,0,0.2,0.1,0.4c1.1,1.5,2.2,2.9,3.4,4.4c0.2,0.4,0.6,0.7,0.9,1.1C42.9,29,42.9,29,43,29
		c-0.1,0.1-0.4,0.4-0.6,0.4l0,0c-0.1,0-0.2-0.1-0.2-0.2c-1.4-1.7-2.7-3.5-4-5.2c-0.1-0.1-0.2-0.2-0.2-0.4
		C38.1,23.5,38.2,23.3,38.4,23z"/>
	<path class="st29" d="M39,21.8c0.1-0.2,0.1-0.5,0.2-0.7c0.4,0.4,0.6,0.9,1,1.2c0.7,1,1.6,2,2.4,3c0.1,0.1,0.1,0.1,0.1,0.2
		c-0.1,0.2,0,0.4,0.1,0.5c0.2,0.2,0.6,0.6,0.9,0.9c0.2,0.2,0.4,0.5,0.1,0.9c-0.2,0.1-0.2,0-0.4-0.1c-0.6-0.9-1.4-1.7-2-2.6
		c-0.7-1-1.5-1.9-2.2-2.9C39.1,22,39,21.9,39,21.8z"/>
	<path class="st30" d="M39.2,20.8c0-0.4,0.1-0.7,0.1-1c0.2,0.1,0.2,0.2,0.2,0.5c1,1.2,1.9,2.5,2.9,3.6c0.2,0.2,0.5,0.5,0.6,0.9
		c0,0.2,0,0.3-0.3,0.6c-0.2,0.1-0.2-0.1-0.4-0.2c-1-1.2-1.9-2.4-2.9-3.6C39.6,21.1,39.4,21,39.2,20.8z"/>
	<path class="st31" d="M43.2,24.6c-0.4-0.2-0.6-0.7-0.9-1.1c-0.9-1.1-1.7-2.2-2.6-3.5c-0.1-0.1-0.1-0.2-0.2-0.4c0-0.2,0-0.5,0-0.7
		c0.2,0,0.2,0.2,0.4,0.4c0.7,1,1.5,2,2.2,2.9c0.5,0.6,1,1.2,1.4,1.9C43.5,24.2,43.4,24.4,43.2,24.6z"/>
	<path class="st32" d="M39,21.8c0.1,0,0.2,0.1,0.4,0.2c1.4,1.7,2.6,3.5,4,5.1c0.1,0.2,0.2,0.5,0.6,0.5c0,0.2-0.1,0.4-0.2,0.5
		c-0.1,0-0.2-0.1-0.4-0.2c-1.1-1.5-2.2-2.9-3.4-4.4c-0.4-0.4-0.6-0.9-1-1.2c-0.1-0.1-0.1-0.1-0.1-0.2C38.9,22,38.9,21.9,39,21.8z"/>
	<path class="st25" d="M43.5,24c-0.5-0.4-0.7-1-1.1-1.4c-1-1.2-1.9-2.5-2.9-3.6c0-0.2,0-0.5,0-0.7c0.4,0.5,0.7,1,1.1,1.5
		c1,1.2,2,2.5,2.9,3.7c0.1,0.1,0.1,0.1,0.1,0.2C43.7,23.8,43.6,23.9,43.5,24z"/>
	<path class="st33" d="M38.9,22.1c1.5,2,3.1,4,4.6,6c0,0.1,0.1,0.1,0.2,0.2c0,0.1-0.1,0.2-0.2,0.4c-0.2,0-0.4-0.4-0.5-0.5
		c-1.2-1.5-2.4-3-3.5-4.5c-0.2-0.4-0.5-0.6-0.7-1C38.6,22.5,38.7,22.3,38.9,22.1z"/>
	<path class="st34" d="M37.5,24.4c0.9,1.2,1.9,2.4,2.7,3.5c0.2,0.4,0.6,0.7,0.9,1.2c-0.4,0-0.5-0.4-0.9-0.4
		c-0.2-0.2-0.4-0.6-0.7-0.9c-0.1-0.1-0.2-0.2-0.4-0.5c-0.2-0.4-0.5-0.7-0.7-1.1c-0.2-0.2-0.5-0.5-0.6-0.9c-0.1-0.1-0.4-0.2-0.4-0.4
		c0-0.1-0.1-0.2-0.1-0.4C37.2,24.6,37.4,24.5,37.5,24.4z"/>
	<path class="st31" d="M43.4,13.2c-0.2-0.1-0.4-0.5-0.6-0.7c-1-1.2-1.9-2.5-2.9-3.7c-0.1-0.1-0.2-0.2-0.1-0.4
		c0.2,0.2,0.4,0.5,0.7,0.5c0.1-0.1,0.2,0,0.4,0.1c0.6,0.7,1.2,1.6,1.9,2.4c0.1,0.1,0.1,0.2,0.1,0.4c-0.1,0.1,0,0.2,0,0.5
		C43,12.4,43.2,12.8,43.4,13.2z"/>
	<path class="st30" d="M42.7,11.5c-0.2-0.5-0.6-0.9-0.9-1.2c-0.4-0.5-0.7-1-1.1-1.4c0-0.1-0.1-0.1-0.2-0.1c0.1-0.1,0.4-0.2,0.6-0.4
		c0.2-0.1,0.2,0.1,0.4,0.1c0.6,0.7,1.1,1.5,1.7,2.2c0,0.1,0.1,0.1,0.1,0.2C43.1,11.3,42.9,11.4,42.7,11.5z"/>
	<path class="st29" d="M41.5,8.2C41.6,8,41.7,7.9,42,7.9c0.1-0.1,0.2,0,0.2,0.1c0.5,0.7,1.1,1.5,1.6,2.1c0,0,0,0,0,0.1
		c-0.1,0.1-0.2,0.4-0.5,0.5c-0.1,0-0.2-0.1-0.2-0.1c-0.5-0.7-1.1-1.4-1.6-2.1C41.5,8.4,41.4,8.3,41.5,8.2z"/>
	<path class="st35" d="M39.2,20.8c0.5,0.4,0.7,1,1.1,1.4c0.7,1,1.5,2,2.2,3c0,0.1,0.1,0.1,0.2,0.1c0,0.1-0.1,0.2-0.2,0.4
		c-0.5-0.5-1-1.1-1.4-1.7c-0.6-0.7-1.2-1.6-1.9-2.4c-0.1-0.1-0.1-0.2-0.2-0.4C39.2,20.9,39.2,20.8,39.2,20.8z"/>
	<path class="st31" d="M46.1,16.9c-0.1-0.4-0.5-0.7-0.7-1.1C45,15.1,44.5,14.6,44,14l-0.1-0.1c0.2,0,0.4,0,0.6,0
		c0.1-0.1,0.2,0,0.4,0.1c0.5,0.7,1.1,1.4,1.6,2.1c0,0.1,0.1,0.1,0.1,0.2C46.6,16.8,46.5,16.9,46.1,16.9z"/>
	<path class="st30" d="M46.6,16.4c-0.5-0.6-0.9-1.1-1.4-1.7c-0.1-0.2-0.4-0.4-0.5-0.6c0-0.1-0.1-0.1-0.2-0.1c0.2-0.1,0.6,0,0.9,0
		c0.4,0.4,0.7,0.9,1.1,1.4C46.6,15.6,46.7,16,46.6,16.4z"/>
	<path class="st36" d="M44,10.3c-0.2-0.1-0.4-0.4-0.6-0.6c-0.4-0.5-0.9-1-1.2-1.6c0-0.1-0.1,0-0.1,0c0.1-0.1,0.2,0,0.4,0
		c0.4,0.1,0.7,0.5,1,0.7c0,0.1,0.1,0.2,0.2,0.2c0,0.1,0,0.1,0.1,0.2c0.1,0.2,0.1,0.5,0.2,0.7C44,10,44,10.2,44,10.3z"/>
	<path class="st35" d="M41.5,8.2c0.1,0.4,0.5,0.7,0.7,1c0.4,0.5,0.7,1.1,1.2,1.6c-0.1,0.1-0.1,0.2-0.2,0.2c-0.2-0.5-0.6-0.9-0.9-1.2
		S41.9,9,41.5,8.7c-0.1-0.1-0.2-0.2-0.4-0.4C41.2,8.3,41.4,8.3,41.5,8.2z"/>
	<path class="st37" d="M46.5,15.3c-0.5-0.4-0.7-0.9-1.1-1.4c0.2-0.1,0.5,0,0.6,0.2C46.4,14.4,46.5,14.8,46.5,15.3z"/>
	<path class="st25" d="M43.9,23.6c0.1-0.1,0.2-0.1,0.4,0C44,23.6,43.9,23.6,43.9,23.6z"/>
	<path class="st38" d="M38,23.8c0.9,1.2,1.9,2.4,2.7,3.6c0.6,0.7,1.1,1.5,1.7,2.2c-0.1,0-0.2,0-0.4-0.1c-0.6-0.9-1.4-1.7-2-2.6
		s-1.3-1.9-2-2.8L37.9,24C37.9,23.8,37.9,23.8,38,23.8z"/>
	<path class="st31" d="M38.5,6.9c-0.2-0.4-0.5-0.7-0.7-1.1c-0.5-0.6-0.9-1.2-1.4-1.9c0.2-0.1,0.5,0,0.7,0c0.1,0.1,0.2,0.2,0.4,0.4
		c0.4,0.5,0.9,1.1,1.2,1.6C38.6,6.4,38.6,6.7,38.5,6.9z"/>
	<path class="st39" d="M38.7,6.2c-0.5-0.4-0.7-1-1.1-1.4c-0.1-0.2-0.4-0.4-0.5-0.6c0.5,0.1,1,0.4,1.5,0.7C39,5.3,39,5.4,38.7,6.2z"
		/>
	<path class="st31" d="M39.7,8.4c-0.1,0-0.2-0.1-0.2-0.2C39.6,8.2,39.7,8.3,39.7,8.4z"/>
	<path class="st31" d="M38.4,7.3c-0.1-0.1-0.1-0.2,0-0.4C38.5,7,38.5,7.2,38.4,7.3z"/>
</g>
<rect x="42.5" y="6.7" class="st40" width="88.9" height="30.4"/>
<path class="st3" d="M58.1,8.1c0.2,0,0.3,0.1,0.3,0.3c0,0.1,0,0.2-0.1,0.4s-0.1,0.3-0.2,0.4l-4.2,10.5L48.8,8.2h4.3l2.5,5.8l1.7-4.4
	c0.2-0.5,0.3-0.8,0.4-1c0.1-0.2,0.1-0.4,0.2-0.4C57.9,8.1,58,8.1,58.1,8.1z"/>
<path class="st3" d="M60,8.2h4v11.1h-4V8.2z"/>
<path class="st3" d="M74.6,8.4c0,0.2-0.3,0.4-0.8,0.4H72v10.5h-4V8.7h-1.2c-0.4,0-0.7,0-0.8,0.1c-0.2,0-0.3,0.1-0.4,0.1
	c-0.3,0-0.4-0.1-0.4-0.3c0-0.2,0.3-0.4,0.8-0.4h7c0.4,0,0.6,0,0.8,0c0.2,0,0.4-0.1,0.5-0.1C74.5,8.1,74.6,8.2,74.6,8.4z"/>
<path class="st3" d="M78.2,17.8c-1,0-1.6,0-2,0L76,18.4c-0.1,0.2-0.1,0.3-0.2,0.5c-0.1,0.3-0.3,0.5-0.5,0.5c-0.1,0-0.2,0-0.2-0.1
	S75,19.1,75,19c0-0.1,0-0.2,0.1-0.4c0.2-0.2,0.3-0.5,0.5-0.9c-0.4,0-0.7-0.2-0.7-0.4s0.1-0.3,0.4-0.3c0.2,0,0.3,0,0.5,0.1l3.9-9.5
	l5.3,11.6h-4.1l-0.6-1.4H78.2z M76.5,17.2c0.5,0,0.9,0.1,1.3,0.1h2.3l-2-4.2L76.5,17.2z"/>
<path class="st1" d="M93.5,18.5c0.3,0,0.4,0.1,0.4,0.4c0,0.1-0.1,0.2-0.2,0.3c-0.1,0.1-0.3,0.1-0.6,0.1h-6.3V8.2h4v10.5h1.5
	c0.3,0,0.6,0,0.8-0.1C93.4,18.5,93.5,18.5,93.5,18.5z"/>
<path class="st1" d="M95.3,8.2h4v11.1h-4V8.2z"/>
<path class="st1" d="M109.9,8.4c0,0.2-0.3,0.4-0.8,0.4h-1.8v10.5h-4V8.7h-1.2c-0.4,0-0.7,0-0.8,0.1c-0.2,0-0.3,0.1-0.4,0.1
	c-0.3,0-0.4-0.1-0.4-0.3c0-0.2,0.3-0.4,0.8-0.4h7c0.4,0,0.6,0,0.8,0c0.2,0,0.4-0.1,0.5-0.1C109.8,8.1,109.9,8.2,109.9,8.4z"/>
<path class="st1" d="M114,19.3c-0.2,0-0.3-0.1-0.3-0.3c0-0.1,0.1-0.3,0.2-0.5c0.3-0.3,0.5-0.7,0.8-1.1l0.4-0.7l-4.6-8.5h4.6l2.2,4.7
	l2-3.6c0.1-0.3,0.3-0.5,0.4-0.8c0.1-0.3,0.2-0.4,0.4-0.4c0.2,0,0.3,0.1,0.3,0.3c0,0.1,0,0.3-0.1,0.4l-5.3,9.5
	c-0.1,0.1-0.1,0.2-0.1,0.3l-0.1,0.3C114.4,19.2,114.2,19.3,114,19.3z"/>
<g>
	<path class="st0" d="M84.7,35.5l0-0.5v-1.2c-0.7,1.2-1.8,2-3.3,2.3c-0.5,0.1-1,0.2-1.6,0.2s-1.2-0.1-1.9-0.4
		c-0.6-0.3-1.2-0.6-1.7-1.1c-1.1-1-1.6-2.4-1.6-4.1c0-1.6,0.6-3,1.7-4.1c1.2-1.2,2.6-1.7,4.4-1.7c0.9,0,1.7,0.2,2.4,0.5
		c0.4,0.2,0.8,0.4,0.9,0.6c0.2,0.2,0.3,0.3,0.3,0.4s0,0.2-0.1,0.3s-0.2,0.1-0.3,0.1c-0.1,0-0.2-0.1-0.4-0.2
		c-0.4-0.4-0.8-0.6-1.1-0.7s-0.5-0.2-0.7-0.2c-0.2,0-0.3-0.1-0.5-0.1c-0.2,0-0.5,0-0.8,0c-0.3,0-0.6,0-0.9,0.1v10.1
		c0.1,0,0.1,0,0.2,0h0.2c1.5,0,2.8-0.6,3.8-1.8c0.3-0.4,0.6-0.9,0.8-1.4v-0.8l0-0.7c0-0.3,0.1-0.4,0.3-0.4c0.1,0,0.2,0,0.3,0.1
		s0.1,0.2,0.1,0.3l0,0.6v2.9l0,1.2c0,0.1,0,0.2-0.1,0.3s-0.2,0.1-0.2,0.1c-0.2,0-0.3-0.1-0.3-0.4C84.7,35.7,84.7,35.6,84.7,35.5z"/>
	<path class="st0" d="M93.3,32.3l0.6,0c0.9,0,1.7-0.3,2.3-1s1-1.4,1-2.4c0-1.3-0.5-2.2-1.6-2.8c-0.6-0.3-1.3-0.5-1.9-0.6
		c-0.3,0-0.6,0-0.8,0h-0.5c-0.1,0-0.2,0-0.3,0v10.5h-4V25c1.2,0,2.2,0,3,0c0.8,0,1.2,0,1.5,0c0.2,0,0.4,0,0.6,0s0.3,0,0.5,0
		c0.2,0,0.6,0.1,1,0.1c0.4,0.1,0.8,0.2,1.2,0.4c0.4,0.2,0.8,0.5,1.1,0.8c0.6,0.7,1,1.5,1,2.5c0,0.9-0.3,1.8-0.9,2.5
		c-0.6,0.7-1.4,1.2-2.4,1.4c0.5,1.5,1.1,2.4,1.9,2.7c0.2,0.1,0.5,0.1,0.7,0.1l0.6-0.1c0.2,0,0.3,0.1,0.3,0.3c0,0.3-0.3,0.4-1,0.4
		c-0.5,0-0.9-0.1-1.3-0.4c-0.6-0.4-1.1-1.1-1.6-2.1L94,33.1c0-0.1-0.1-0.1-0.1-0.2c0,0-0.1,0-0.1,0s-0.1,0-0.2,0l-0.2,0
		c-0.2,0-0.4,0-0.4-0.1c-0.1-0.1-0.1-0.2-0.1-0.2C92.8,32.4,93,32.3,93.3,32.3z"/>
	<path class="st0" d="M106.7,35.4c0.3,0,0.4,0.1,0.4,0.3c0,0.1-0.1,0.2-0.2,0.3c-0.1,0.1-0.3,0.1-0.6,0.1h-6.6V25c2.1,0,4.1,0,6.2,0
		l0.6,0c0.4,0,0.6,0.1,0.6,0.3c0,0.1,0,0.2-0.1,0.2c-0.1,0.1-0.1,0.1-0.2,0.1c-0.1,0-0.3,0-0.4,0c-0.2,0-0.5-0.1-0.9-0.1h-1.7v2.4
		h1.4l1,0c0.1,0,0.2,0,0.3,0.1c0.1,0.1,0.1,0.1,0.1,0.2c0,0.2-0.1,0.3-0.4,0.3l-0.3,0c-0.2,0-0.3,0-0.4,0h-1.6v7h1.7
		c0.4,0,0.7,0,0.8,0C106.4,35.4,106.5,35.4,106.7,35.4z"/>
	<path class="st0" d="M116,35.4c0.3,0,0.4,0.1,0.4,0.3c0,0.1-0.1,0.2-0.2,0.3c-0.1,0.1-0.3,0.1-0.6,0.1H109V25c2.1,0,4.1,0,6.2,0
		l0.6,0c0.4,0,0.6,0.1,0.6,0.3c0,0.1,0,0.2-0.1,0.2c-0.1,0.1-0.1,0.1-0.2,0.1c-0.1,0-0.3,0-0.4,0c-0.2,0-0.5-0.1-0.9-0.1H113v2.4
		h1.4l1,0c0.1,0,0.2,0,0.3,0.1c0.1,0.1,0.1,0.1,0.1,0.2c0,0.2-0.1,0.3-0.4,0.3l-0.3,0c-0.2,0-0.3,0-0.4,0H113v7h1.7
		c0.4,0,0.7,0,0.8,0C115.7,35.4,115.9,35.4,116,35.4z"/>
	<path class="st0" d="M119.2,34.9l0,0.8c0,0.1,0,0.2-0.1,0.3c-0.1,0.1-0.2,0.1-0.3,0.1s-0.2,0-0.3-0.1c-0.1-0.1-0.1-0.1-0.1-0.2
		s0-0.2,0-0.2c0-0.1,0-0.1,0-0.2c0-0.2,0-0.5,0-1.1v-9.7l8.5,6.7v-4.7c0-0.4,0-0.6,0-0.8c0-0.2,0-0.4,0-0.5c0-0.3,0.1-0.4,0.3-0.4
		c0.1,0,0.2,0,0.3,0.1c0.1,0.1,0.1,0.2,0.1,0.3v0.3l0,1.1v9.8l-8.5-6.7V34.9z"/>
</g>
</svg>
